<?xml version="1.0" encoding="utf-8"?>
<!-- created with bpmn-js / http://bpmn.io -->
<!DOCTYPE svg PUBLIC "-//W3C//DTD SVG 1.1//EN" "http://www.w3.org/Graphics/SVG/1.1/DTD/svg11.dtd">
<svg xmlns="http://www.w3.org/2000/svg" xmlns:xlink="http://www.w3.org/1999/xlink" width="1538" height="591" viewBox="169 74 1538 591" version="1.1"><defs><marker id="sequenceflow-end-white-hsl_225_10_15_-338gdcuyuuj4g4bwmguq89y2o" viewBox="0 0 20 20" refX="11" refY="10" markerWidth="10" markerHeight="10" orient="auto"><path d="M 1 5 L 11 10 L 1 15 Z" style="fill: rgb(34, 36, 42); stroke-width: 1px; stroke-linecap: round; stroke-dasharray: 10000, 1; stroke: rgb(34, 36, 42);"/></marker></defs><g class="djs-group"><g class="djs-element djs-shape" data-element-id="Event_0jc8ep5" style="display: block;" transform="matrix(1 0 0 1 202 582)"><g class="djs-visual"><circle cx="18" cy="18" r="18" style="stroke: rgb(34, 36, 42); stroke-width: 2px; fill: white; fill-opacity: 0.95;"/></g><rect class="djs-hit djs-hit-all" x="0" y="0" width="36" height="36" style="fill: none; stroke-opacity: 0; stroke: white; stroke-width: 15px;"/><rect x="-6" y="-6" rx="3" width="48" height="48" class="djs-outline" style="fill: none;"/></g></g><g class="djs-group"><g class="djs-element djs-shape" data-element-id="Event_0jc8ep5_label" style="display: block;" transform="matrix(1 0 0 1 180 625)"><g class="djs-visual"><text lineHeight="1.2" class="djs-label" style="font-family: Arial, sans-serif; font-size: 11px; font-weight: normal; fill: rgb(34, 36, 42);"><tspan x="0" y="9.899999999999999">User needs help </tspan><tspan x="7.34375" y="23.099999999999998">implementing</tspan></text></g><rect class="djs-hit djs-hit-all" x="0" y="0" width="81" height="27" style="fill: none; stroke-opacity: 0; stroke: white; stroke-width: 15px;"/><rect x="-6" y="-6" rx="3" width="93" height="39" class="djs-outline" style="fill: none;"/></g></g><g class="djs-group"><g class="djs-element djs-shape" data-element-id="Event_1lmjcob" style="display: block;" transform="matrix(1 0 0 1 442 582)"><g class="djs-visual"><circle cx="18" cy="18" r="18" style="stroke: rgb(34, 36, 42); stroke-width: 1px; fill: white; fill-opacity: 0.95;"/><circle cx="18" cy="18" r="15" style="stroke: rgb(34, 36, 42); stroke-width: 1px; fill: none;"/><path d="m 8.459999999999999,11.34 l 0,12.6 l 18.900000000000002,0 l 0,-12.6 z l 9.450000000000001,5.4 l 9.450000000000001,-5.4" style="fill: white; stroke-width: 1px; stroke: rgb(34, 36, 42);"/></g><rect class="djs-hit djs-hit-all" x="0" y="0" width="36" height="36" style="fill: none; stroke-opacity: 0; stroke: white; stroke-width: 15px;"/><rect x="-6" y="-6" rx="3" width="48" height="48" class="djs-outline" style="fill: none;"/></g></g><g class="djs-group"><g class="djs-element djs-shape" data-element-id="Event_1lmjcob_label" style="display: block;" transform="matrix(1 0 0 1 420 623)"><g class="djs-visual"><text lineHeight="1.2" class="djs-label" style="font-family: Arial, sans-serif; font-size: 11px; font-weight: normal; fill: rgb(34, 36, 42);"><tspan x="0" y="9.899999999999999">Appointment set</tspan></text></g><rect class="djs-hit djs-hit-all" x="0" y="0" width="80" height="14" style="fill: none; stroke-opacity: 0; stroke: white; stroke-width: 15px;"/><rect x="-6" y="-6" rx="3" width="92" height="26" class="djs-outline" style="fill: none;"/></g></g><g class="djs-group"><g class="djs-element djs-shape" data-element-id="Gateway_1pu0vc9" style="display: block;" transform="matrix(1 0 0 1 685 575)"><g class="djs-visual"><polygon points="25,0 50,25 25,50 0,25" style="stroke: rgb(34, 36, 42); stroke-width: 2px; fill: white; fill-opacity: 0.95;"/><path d="m 16,15 7.42857142857143,9.714285714285715 -7.42857142857143,9.714285714285715 3.428571428571429,0 5.714285714285715,-7.464228571428572 5.714285714285715,7.464228571428572 3.428571428571429,0 -7.42857142857143,-9.714285714285715 7.42857142857143,-9.714285714285715 -3.428571428571429,0 -5.714285714285715,7.464228571428572 -5.714285714285715,-7.464228571428572 -3.428571428571429,0 z" style="fill: rgb(34, 36, 42); stroke-width: 1px; stroke: rgb(34, 36, 42);"/></g><rect class="djs-hit djs-hit-all" x="0" y="0" width="50" height="50" style="fill: none; stroke-opacity: 0; stroke: white; stroke-width: 15px;"/><rect x="-6" y="-6" rx="3" width="62" height="62" class="djs-outline" style="fill: none;"/></g></g><g class="djs-group"><g class="djs-element djs-shape" data-element-id="Gateway_1pu0vc9_label" style="display: block;" transform="matrix(1 0 0 1 671 632)"><g class="djs-visual"><text lineHeight="1.2" class="djs-label" style="font-family: Arial, sans-serif; font-size: 11px; font-weight: normal; fill: rgb(34, 36, 42);"><tspan x="0" y="9.899999999999999">Place an order?</tspan></text></g><rect class="djs-hit djs-hit-all" x="0" y="0" width="78" height="14" style="fill: none; stroke-opacity: 0; stroke: white; stroke-width: 15px;"/><rect x="-6" y="-6" rx="3" width="90" height="26" class="djs-outline" style="fill: none;"/></g></g><g class="djs-group"><g class="djs-element djs-shape" data-element-id="Gateway_1vpk8wg" style="display: block;" transform="matrix(1 0 0 1 945 575)"><g class="djs-visual"><polygon points="25,0 50,25 25,50 0,25" style="stroke: rgb(34, 36, 42); stroke-width: 2px; fill: white; fill-opacity: 0.95;"/><path d="m 16,15 7.42857142857143,9.714285714285715 -7.42857142857143,9.714285714285715 3.428571428571429,0 5.714285714285715,-7.464228571428572 5.714285714285715,7.464228571428572 3.428571428571429,0 -7.42857142857143,-9.714285714285715 7.42857142857143,-9.714285714285715 -3.428571428571429,0 -5.714285714285715,7.464228571428572 -5.714285714285715,-7.464228571428572 -3.428571428571429,0 z" style="fill: rgb(34, 36, 42); stroke-width: 1px; stroke: rgb(34, 36, 42);"/></g><rect class="djs-hit djs-hit-all" x="0" y="0" width="50" height="50" style="fill: none; stroke-opacity: 0; stroke: white; stroke-width: 15px;"/><rect x="-6" y="-6" rx="3" width="62" height="62" class="djs-outline" style="fill: none;"/></g></g><g class="djs-group"><g class="djs-element djs-shape" data-element-id="Gateway_1vpk8wg_label" style="display: block;" transform="matrix(1 0 0 1 930 632)"><g class="djs-visual"><text lineHeight="1.2" class="djs-label" style="font-family: Arial, sans-serif; font-size: 11px; font-weight: normal; fill: rgb(34, 36, 42);"><tspan x="0" y="9.899999999999999">All requirements </tspan><tspan x="27.753662109375" y="23.099999999999998">met?</tspan></text></g><rect class="djs-hit djs-hit-all" x="0" y="0" width="80" height="27" style="fill: none; stroke-opacity: 0; stroke: white; stroke-width: 15px;"/><rect x="-6" y="-6" rx="3" width="92" height="39" class="djs-outline" style="fill: none;"/></g></g><g class="djs-group"><g class="djs-element djs-shape" data-element-id="Gateway_0awewc9" style="display: block;" transform="matrix(1 0 0 1 1385 575)"><g class="djs-visual"><polygon points="25,0 50,25 25,50 0,25" style="stroke: rgb(34, 36, 42); stroke-width: 2px; fill: white; fill-opacity: 0.95;"/><path d="m 16,15 7.42857142857143,9.714285714285715 -7.42857142857143,9.714285714285715 3.428571428571429,0 5.714285714285715,-7.464228571428572 5.714285714285715,7.464228571428572 3.428571428571429,0 -7.42857142857143,-9.714285714285715 7.42857142857143,-9.714285714285715 -3.428571428571429,0 -5.714285714285715,7.464228571428572 -5.714285714285715,-7.464228571428572 -3.428571428571429,0 z" style="fill: rgb(34, 36, 42); stroke-width: 1px; stroke: rgb(34, 36, 42);"/></g><rect class="djs-hit djs-hit-all" x="0" y="0" width="50" height="50" style="fill: none; stroke-opacity: 0; stroke: white; stroke-width: 15px;"/><rect x="-6" y="-6" rx="3" width="62" height="62" class="djs-outline" style="fill: none;"/></g></g><g class="djs-group"><g class="djs-element djs-shape" data-element-id="Gateway_0awewc9_label" style="display: block;" transform="matrix(1 0 0 1 1377 632)"><g class="djs-visual"><text lineHeight="1.2" class="djs-label" style="font-family: Arial, sans-serif; font-size: 11px; font-weight: normal; fill: rgb(34, 36, 42);"><tspan x="0" y="9.899999999999999">User problem </tspan><tspan x="14.0546875" y="23.099999999999998">solved?</tspan></text></g><rect class="djs-hit djs-hit-all" x="0" y="0" width="67" height="27" style="fill: none; stroke-opacity: 0; stroke: white; stroke-width: 15px;"/><rect x="-6" y="-6" rx="3" width="79" height="39" class="djs-outline" style="fill: none;"/></g></g><g class="djs-group"><g class="djs-element djs-shape" data-element-id="Event_14x7bws" style="display: block;" transform="matrix(1 0 0 1 1662 582)"><g class="djs-visual"><circle cx="18" cy="18" r="18" style="stroke: rgb(34, 36, 42); stroke-width: 4px; fill: white; fill-opacity: 0.95;"/></g><rect class="djs-hit djs-hit-all" x="0" y="0" width="36" height="36" style="fill: none; stroke-opacity: 0; stroke: white; stroke-width: 15px;"/><rect x="-6" y="-6" rx="3" width="48" height="48" class="djs-outline" style="fill: none;"/></g></g><g class="djs-group"><g class="djs-element djs-shape" data-element-id="Event_14x7bws_label" style="display: block;" transform="matrix(1 0 0 1 1659 625)"><g class="djs-visual"><text lineHeight="1.2" class="djs-label" style="font-family: Arial, sans-serif; font-size: 11px; font-weight: normal; fill: rgb(34, 36, 42);"><tspan x="0" y="9.899999999999999">Get paid</tspan></text></g><rect class="djs-hit djs-hit-all" x="0" y="0" width="42" height="14" style="fill: none; stroke-opacity: 0; stroke: white; stroke-width: 15px;"/><rect x="-6" y="-6" rx="3" width="54" height="26" class="djs-outline" style="fill: none;"/></g></g><g class="djs-group"><g class="djs-element djs-shape" data-element-id="Activity_1hmxvgb" style="display: block;" transform="matrix(1 0 0 1 790 560)"><g class="djs-visual"><rect x="0" y="0" width="100" height="80" rx="10" ry="10" style="stroke: rgb(34, 36, 42); stroke-width: 2px; fill: white; fill-opacity: 0.95;"/><text lineHeight="1.2" class="djs-label" style="font-family: Arial, sans-serif; font-size: 12px; font-weight: normal; fill: rgb(34, 36, 42);"><tspan x="18.154296875" y="36.4">Create New </tspan><tspan x="30.9931640625" y="50.8">Project</tspan></text><path d="m 15,12 c 0.909,-0.845 1.594,-2.049 1.594,-3.385 0,-2.554 -1.805,-4.62199999 -4.357,-4.62199999 -2.55199998,0 -4.28799998,2.06799999 -4.28799998,4.62199999 0,1.348 0.974,2.562 1.89599998,3.405 -0.52899998,0.187 -5.669,2.097 -5.794,4.7560005 v 6.718 h 17 v -6.718 c 0,-2.2980005 -5.5279996,-4.5950005 -6.0509996,-4.7760005 zm -8,6 l 0,5.5 m 11,0 l 0,-5" style="fill: white; stroke-width: 0.5px; stroke: rgb(34, 36, 42);"/><path d="m 15,12 m 2.162,1.009 c 0,2.4470005 -2.158,4.4310005 -4.821,4.4310005 -2.66499998,0 -4.822,-1.981 -4.822,-4.4310005 " style="fill: white; stroke-width: 0.5px; stroke: rgb(34, 36, 42);"/><path d="m 15,12 m -6.9,-3.80 c 0,0 2.25099998,-2.358 4.27399998,-1.177 2.024,1.181 4.221,1.537 4.124,0.965 -0.098,-0.57 -0.117,-3.79099999 -4.191,-4.13599999 -3.57499998,0.001 -4.20799998,3.36699999 -4.20699998,4.34799999 z" style="fill: rgb(34, 36, 42); stroke-width: 0.5px; stroke: rgb(34, 36, 42);"/></g><rect class="djs-hit djs-hit-all" x="0" y="0" width="100" height="80" style="fill: none; stroke-opacity: 0; stroke: white; stroke-width: 15px;"/><rect x="-6" y="-6" rx="3" width="112" height="92" class="djs-outline" style="fill: none;"/></g></g><g class="djs-group"><g class="djs-element djs-shape" data-element-id="Activity_1k6rqit" style="display: block;" transform="matrix(1 0 0 1 530 560)"><g class="djs-visual"><rect x="0" y="0" width="100" height="80" rx="10" ry="10" style="stroke: rgb(34, 36, 42); stroke-width: 2px; fill: white; fill-opacity: 0.95;"/><text lineHeight="1.2" class="djs-label" style="font-family: Arial, sans-serif; font-size: 12px; font-weight: normal; fill: rgb(34, 36, 42);"><tspan x="18.154296875" y="36.4">Create New </tspan><tspan x="16.4296875" y="50.8">Project Offer</tspan></text><path d="m 15,12 c 0.909,-0.845 1.594,-2.049 1.594,-3.385 0,-2.554 -1.805,-4.62199999 -4.357,-4.62199999 -2.55199998,0 -4.28799998,2.06799999 -4.28799998,4.62199999 0,1.348 0.974,2.562 1.89599998,3.405 -0.52899998,0.187 -5.669,2.097 -5.794,4.7560005 v 6.718 h 17 v -6.718 c 0,-2.2980005 -5.5279996,-4.5950005 -6.0509996,-4.7760005 zm -8,6 l 0,5.5 m 11,0 l 0,-5" style="fill: white; stroke-width: 0.5px; stroke: rgb(34, 36, 42);"/><path d="m 15,12 m 2.162,1.009 c 0,2.4470005 -2.158,4.4310005 -4.821,4.4310005 -2.66499998,0 -4.822,-1.981 -4.822,-4.4310005 " style="fill: white; stroke-width: 0.5px; stroke: rgb(34, 36, 42);"/><path d="m 15,12 m -6.9,-3.80 c 0,0 2.25099998,-2.358 4.27399998,-1.177 2.024,1.181 4.221,1.537 4.124,0.965 -0.098,-0.57 -0.117,-3.79099999 -4.191,-4.13599999 -3.57499998,0.001 -4.20799998,3.36699999 -4.20699998,4.34799999 z" style="fill: rgb(34, 36, 42); stroke-width: 0.5px; stroke: rgb(34, 36, 42);"/></g><rect class="djs-hit djs-hit-all" x="0" y="0" width="100" height="80" style="fill: none; stroke-opacity: 0; stroke: white; stroke-width: 15px;"/><rect x="-6" y="-6" rx="3" width="112" height="92" class="djs-outline" style="fill: none;"/></g></g><g class="djs-group"><g class="djs-element djs-shape" data-element-id="Activity_0btsejy" style="display: block;" transform="matrix(1 0 0 1 1510 560)"><g class="djs-visual"><rect x="0" y="0" width="100" height="80" rx="10" ry="10" style="stroke: rgb(34, 36, 42); stroke-width: 2px; fill: white; fill-opacity: 0.95;"/><text lineHeight="1.2" class="djs-label" style="font-family: Arial, sans-serif; font-size: 12px; font-weight: normal; fill: rgb(34, 36, 42);"><tspan x="13.986328125" y="43.599999999999994">Finish project</tspan></text><path d="m 15,12 c 0.909,-0.845 1.594,-2.049 1.594,-3.385 0,-2.554 -1.805,-4.62199999 -4.357,-4.62199999 -2.55199998,0 -4.28799998,2.06799999 -4.28799998,4.62199999 0,1.348 0.974,2.562 1.89599998,3.405 -0.52899998,0.187 -5.669,2.097 -5.794,4.7560005 v 6.718 h 17 v -6.718 c 0,-2.2980005 -5.5279996,-4.5950005 -6.0509996,-4.7760005 zm -8,6 l 0,5.5 m 11,0 l 0,-5" style="fill: white; stroke-width: 0.5px; stroke: rgb(34, 36, 42);"/><path d="m 15,12 m 2.162,1.009 c 0,2.4470005 -2.158,4.4310005 -4.821,4.4310005 -2.66499998,0 -4.822,-1.981 -4.822,-4.4310005 " style="fill: white; stroke-width: 0.5px; stroke: rgb(34, 36, 42);"/><path d="m 15,12 m -6.9,-3.80 c 0,0 2.25099998,-2.358 4.27399998,-1.177 2.024,1.181 4.221,1.537 4.124,0.965 -0.098,-0.57 -0.117,-3.79099999 -4.191,-4.13599999 -3.57499998,0.001 -4.20799998,3.36699999 -4.20699998,4.34799999 z" style="fill: rgb(34, 36, 42); stroke-width: 0.5px; stroke: rgb(34, 36, 42);"/></g><rect class="djs-hit djs-hit-all" x="0" y="0" width="100" height="80" style="fill: none; stroke-opacity: 0; stroke: white; stroke-width: 15px;"/><rect x="-6" y="-6" rx="3" width="112" height="92" class="djs-outline" style="fill: none;"/></g></g><g class="djs-group"><g class="djs-element djs-shape" data-element-id="Activity_05z6274" style="display: block;" transform="matrix(1 0 0 1 290 560)"><g class="djs-visual"><rect x="0" y="0" width="100" height="80" rx="10" ry="10" style="stroke: rgb(34, 36, 42); stroke-width: 2px; fill: white; fill-opacity: 0.95;"/><text lineHeight="1.2" class="djs-label" style="font-family: Arial, sans-serif; font-size: 12px; font-weight: normal; fill: rgb(34, 36, 42);"><tspan x="24.765625" y="43.599999999999994">Offer Call</tspan></text><path d="m 15,12 c 0.909,-0.845 1.594,-2.049 1.594,-3.385 0,-2.554 -1.805,-4.62199999 -4.357,-4.62199999 -2.55199998,0 -4.28799998,2.06799999 -4.28799998,4.62199999 0,1.348 0.974,2.562 1.89599998,3.405 -0.52899998,0.187 -5.669,2.097 -5.794,4.7560005 v 6.718 h 17 v -6.718 c 0,-2.2980005 -5.5279996,-4.5950005 -6.0509996,-4.7760005 zm -8,6 l 0,5.5 m 11,0 l 0,-5" style="fill: white; stroke-width: 0.5px; stroke: rgb(34, 36, 42);"/><path d="m 15,12 m 2.162,1.009 c 0,2.4470005 -2.158,4.4310005 -4.821,4.4310005 -2.66499998,0 -4.822,-1.981 -4.822,-4.4310005 " style="fill: white; stroke-width: 0.5px; stroke: rgb(34, 36, 42);"/><path d="m 15,12 m -6.9,-3.80 c 0,0 2.25099998,-2.358 4.27399998,-1.177 2.024,1.181 4.221,1.537 4.124,0.965 -0.098,-0.57 -0.117,-3.79099999 -4.191,-4.13599999 -3.57499998,0.001 -4.20799998,3.36699999 -4.20699998,4.34799999 z" style="fill: rgb(34, 36, 42); stroke-width: 0.5px; stroke: rgb(34, 36, 42);"/></g><rect class="djs-hit djs-hit-all" x="0" y="0" width="100" height="80" style="fill: none; stroke-opacity: 0; stroke: white; stroke-width: 15px;"/><rect x="-6" y="-6" rx="3" width="112" height="92" class="djs-outline" style="fill: none;"/></g></g><g class="djs-group"><g class="djs-element djs-shape" data-element-id="Activity_0m314qi" style="display: block;" transform="matrix(1 0 0 1 1230 560)"><g class="djs-visual"><rect x="0" y="0" width="100" height="80" rx="10" ry="10" style="stroke: rgb(34, 36, 42); stroke-width: 2px; fill: white; fill-opacity: 0.95;"/><text lineHeight="1.2" class="djs-label" style="font-family: Arial, sans-serif; font-size: 12px; font-weight: normal; fill: rgb(34, 36, 42);"><tspan x="9.6533203125" y="43.599999999999994">Review Project</tspan></text><path d="m 15,12 c 0.909,-0.845 1.594,-2.049 1.594,-3.385 0,-2.554 -1.805,-4.62199999 -4.357,-4.62199999 -2.55199998,0 -4.28799998,2.06799999 -4.28799998,4.62199999 0,1.348 0.974,2.562 1.89599998,3.405 -0.52899998,0.187 -5.669,2.097 -5.794,4.7560005 v 6.718 h 17 v -6.718 c 0,-2.2980005 -5.5279996,-4.5950005 -6.0509996,-4.7760005 zm -8,6 l 0,5.5 m 11,0 l 0,-5" style="fill: white; stroke-width: 0.5px; stroke: rgb(34, 36, 42);"/><path d="m 15,12 m 2.162,1.009 c 0,2.4470005 -2.158,4.4310005 -4.821,4.4310005 -2.66499998,0 -4.822,-1.981 -4.822,-4.4310005 " style="fill: white; stroke-width: 0.5px; stroke: rgb(34, 36, 42);"/><path d="m 15,12 m -6.9,-3.80 c 0,0 2.25099998,-2.358 4.27399998,-1.177 2.024,1.181 4.221,1.537 4.124,0.965 -0.098,-0.57 -0.117,-3.79099999 -4.191,-4.13599999 -3.57499998,0.001 -4.20799998,3.36699999 -4.20699998,4.34799999 z" style="fill: rgb(34, 36, 42); stroke-width: 0.5px; stroke: rgb(34, 36, 42);"/></g><rect class="djs-hit djs-hit-all" x="0" y="0" width="100" height="80" style="fill: none; stroke-opacity: 0; stroke: white; stroke-width: 15px;"/><rect x="-6" y="-6" rx="3" width="112" height="92" class="djs-outline" style="fill: none;"/></g></g><g class="djs-group"><g class="djs-element djs-shape" data-element-id="Activity_1cg5m7w" style="display: block;" transform="matrix(1 0 0 1 1050 560)"><g class="djs-visual"><rect x="0" y="0" width="100" height="80" rx="10" ry="10" style="stroke: rgb(34, 36, 42); stroke-width: 2px; fill: white; fill-opacity: 0.95;"/><text lineHeight="1.2" class="djs-label" style="font-family: Arial, sans-serif; font-size: 12px; font-weight: normal; fill: rgb(34, 36, 42);"><tspan x="16.6552734375" y="43.599999999999994">Start Project</tspan></text><path d="m 15,12 c 0.909,-0.845 1.594,-2.049 1.594,-3.385 0,-2.554 -1.805,-4.62199999 -4.357,-4.62199999 -2.55199998,0 -4.28799998,2.06799999 -4.28799998,4.62199999 0,1.348 0.974,2.562 1.89599998,3.405 -0.52899998,0.187 -5.669,2.097 -5.794,4.7560005 v 6.718 h 17 v -6.718 c 0,-2.2980005 -5.5279996,-4.5950005 -6.0509996,-4.7760005 zm -8,6 l 0,5.5 m 11,0 l 0,-5" style="fill: white; stroke-width: 0.5px; stroke: rgb(34, 36, 42);"/><path d="m 15,12 m 2.162,1.009 c 0,2.4470005 -2.158,4.4310005 -4.821,4.4310005 -2.66499998,0 -4.822,-1.981 -4.822,-4.4310005 " style="fill: white; stroke-width: 0.5px; stroke: rgb(34, 36, 42);"/><path d="m 15,12 m -6.9,-3.80 c 0,0 2.25099998,-2.358 4.27399998,-1.177 2.024,1.181 4.221,1.537 4.124,0.965 -0.098,-0.57 -0.117,-3.79099999 -4.191,-4.13599999 -3.57499998,0.001 -4.20799998,3.36699999 -4.20699998,4.34799999 z" style="fill: rgb(34, 36, 42); stroke-width: 0.5px; stroke: rgb(34, 36, 42);"/></g><rect class="djs-hit djs-hit-all" x="0" y="0" width="100" height="80" style="fill: none; stroke-opacity: 0; stroke: white; stroke-width: 15px;"/><rect x="-6" y="-6" rx="3" width="112" height="92" class="djs-outline" style="fill: none;"/></g></g><g class="djs-group"><g class="djs-element djs-shape" data-element-id="Activity_0gwegm9" style="display: block;" transform="matrix(1 0 0 1 175 80)"><g class="djs-visual"><rect x="0" y="0" width="530" height="200" rx="10" ry="10" style="stroke: rgb(34, 36, 42); stroke-width: 2px; fill: white; fill-opacity: 0.95;"/><text lineHeight="1.2" class="djs-label" style="font-family: Arial, sans-serif; font-size: 12px; font-weight: normal; fill: rgb(34, 36, 42);"><tspan x="265" y="15.799999999999999"/></text></g><rect class="djs-hit djs-hit-no-move" x="0" y="0" width="530" height="200" style="fill: none; stroke-opacity: 0; stroke: white; stroke-width: 15px;"/><rect class="djs-hit djs-hit-click-stroke" x="0" y="0" width="530" height="200" style="fill: none; stroke-opacity: 0; stroke: white; stroke-width: 15px;"/><rect class="djs-hit djs-hit-all" x="0" y="0" width="530" height="30" style="fill: none; stroke-opacity: 0; stroke: white; stroke-width: 15px;"/><rect x="-6" y="-6" rx="3" width="542" height="212" class="djs-outline" style="fill: none;"/></g><g class="djs-children"><g class="djs-group"><g class="djs-element djs-shape" data-element-id="Event_0l9yzbo" style="display: block;" transform="matrix(1 0 0 1 207 162)"><g class="djs-visual"><circle cx="18" cy="18" r="18" style="stroke: rgb(34, 36, 42); stroke-width: 2px; fill: white; fill-opacity: 0.95;"/></g><rect class="djs-hit djs-hit-all" x="0" y="0" width="36" height="36" style="fill: none; stroke-opacity: 0; stroke: white; stroke-width: 15px;"/><rect x="-6" y="-6" rx="3" width="48" height="48" class="djs-outline" style="fill: none;"/></g></g><g class="djs-group"><g class="djs-element djs-shape" data-element-id="Event_0l9yzbo_label" style="display: block;" transform="matrix(1 0 0 1 187 205)"><g class="djs-visual"><text lineHeight="1.2" class="djs-label" style="font-family: Arial, sans-serif; font-size: 11px; font-weight: normal; fill: rgb(34, 36, 42);"><tspan x="0" y="9.899999999999999">Have an insight</tspan></text></g><rect class="djs-hit djs-hit-all" x="0" y="0" width="76" height="14" style="fill: none; stroke-opacity: 0; stroke: white; stroke-width: 15px;"/><rect x="-6" y="-6" rx="3" width="88" height="26" class="djs-outline" style="fill: none;"/></g></g><g class="djs-group"><g class="djs-element djs-shape" data-element-id="Activity_03sav1s" style="display: block;" transform="matrix(1 0 0 1 325 140)"><g class="djs-visual"><rect x="0" y="0" width="100" height="80" rx="10" ry="10" style="stroke: rgb(34, 36, 42); stroke-width: 2px; fill: white; fill-opacity: 0.95;"/><text lineHeight="1.2" class="djs-label" style="font-family: Arial, sans-serif; font-size: 12px; font-weight: normal; fill: rgb(34, 36, 42);"><tspan x="8.9765625" y="22">Create Content </tspan><tspan x="34.65234375" y="36.4">about </tspan><tspan x="15.9765625" y="50.8">Digitalisation </tspan><tspan x="25.3203125" y="65.19999999999999">problems</tspan></text><path d="m 15,12 c 0.909,-0.845 1.594,-2.049 1.594,-3.385 0,-2.554 -1.805,-4.62199999 -4.357,-4.62199999 -2.55199998,0 -4.28799998,2.06799999 -4.28799998,4.62199999 0,1.348 0.974,2.562 1.89599998,3.405 -0.52899998,0.187 -5.669,2.097 -5.794,4.7560005 v 6.718 h 17 v -6.718 c 0,-2.2980005 -5.5279996,-4.5950005 -6.0509996,-4.7760005 zm -8,6 l 0,5.5 m 11,0 l 0,-5" style="fill: white; stroke-width: 0.5px; stroke: rgb(34, 36, 42);"/><path d="m 15,12 m 2.162,1.009 c 0,2.4470005 -2.158,4.4310005 -4.821,4.4310005 -2.66499998,0 -4.822,-1.981 -4.822,-4.4310005 " style="fill: white; stroke-width: 0.5px; stroke: rgb(34, 36, 42);"/><path d="m 15,12 m -6.9,-3.80 c 0,0 2.25099998,-2.358 4.27399998,-1.177 2.024,1.181 4.221,1.537 4.124,0.965 -0.098,-0.57 -0.117,-3.79099999 -4.191,-4.13599999 -3.57499998,0.001 -4.20799998,3.36699999 -4.20699998,4.34799999 z" style="fill: rgb(34, 36, 42); stroke-width: 0.5px; stroke: rgb(34, 36, 42);"/></g><rect class="djs-hit djs-hit-all" x="0" y="0" width="100" height="80" style="fill: none; stroke-opacity: 0; stroke: white; stroke-width: 15px;"/><rect x="-6" y="-6" rx="3" width="112" height="92" class="djs-outline" style="fill: none;"/></g></g><g class="djs-group"><g class="djs-element djs-shape" data-element-id="Activity_0tq50xg" style="display: block;" transform="matrix(1 0 0 1 465 140)"><g class="djs-visual"><rect x="0" y="0" width="100" height="80" rx="10" ry="10" style="stroke: rgb(34, 36, 42); stroke-width: 2px; fill: white; fill-opacity: 0.95;"/><text lineHeight="1.2" class="djs-label" style="font-family: Arial, sans-serif; font-size: 12px; font-weight: normal; fill: rgb(34, 36, 42);"><tspan x="16.3125" y="43.599999999999994">Post content</tspan></text><path d="m 15,12 c 0.909,-0.845 1.594,-2.049 1.594,-3.385 0,-2.554 -1.805,-4.62199999 -4.357,-4.62199999 -2.55199998,0 -4.28799998,2.06799999 -4.28799998,4.62199999 0,1.348 0.974,2.562 1.89599998,3.405 -0.52899998,0.187 -5.669,2.097 -5.794,4.7560005 v 6.718 h 17 v -6.718 c 0,-2.2980005 -5.5279996,-4.5950005 -6.0509996,-4.7760005 zm -8,6 l 0,5.5 m 11,0 l 0,-5" style="fill: white; stroke-width: 0.5px; stroke: rgb(34, 36, 42);"/><path d="m 15,12 m 2.162,1.009 c 0,2.4470005 -2.158,4.4310005 -4.821,4.4310005 -2.66499998,0 -4.822,-1.981 -4.822,-4.4310005 " style="fill: white; stroke-width: 0.5px; stroke: rgb(34, 36, 42);"/><path d="m 15,12 m -6.9,-3.80 c 0,0 2.25099998,-2.358 4.27399998,-1.177 2.024,1.181 4.221,1.537 4.124,0.965 -0.098,-0.57 -0.117,-3.79099999 -4.191,-4.13599999 -3.57499998,0.001 -4.20799998,3.36699999 -4.20699998,4.34799999 z" style="fill: rgb(34, 36, 42); stroke-width: 0.5px; stroke: rgb(34, 36, 42);"/></g><rect class="djs-hit djs-hit-all" x="0" y="0" width="100" height="80" style="fill: none; stroke-opacity: 0; stroke: white; stroke-width: 15px;"/><rect x="-6" y="-6" rx="3" width="112" height="92" class="djs-outline" style="fill: none;"/></g></g><g class="djs-group"><g class="djs-element djs-shape" data-element-id="Event_0r25j9s" style="display: block;" transform="matrix(1 0 0 1 617 162)"><g class="djs-visual"><circle cx="18" cy="18" r="18" style="stroke: rgb(34, 36, 42); stroke-width: 4px; fill: white; fill-opacity: 0.95;"/></g><rect class="djs-hit djs-hit-all" x="0" y="0" width="36" height="36" style="fill: none; stroke-opacity: 0; stroke: white; stroke-width: 15px;"/><rect x="-6" y="-6" rx="3" width="48" height="48" class="djs-outline" style="fill: none;"/></g></g><g class="djs-group"><g class="djs-element djs-shape" data-element-id="Event_0r25j9s_label" style="display: block;" transform="matrix(1 0 0 1 603 205)"><g class="djs-visual"><text lineHeight="1.2" class="djs-label" style="font-family: Arial, sans-serif; font-size: 11px; font-weight: normal; fill: rgb(34, 36, 42);"><tspan x="0" y="9.899999999999999">Content is up</tspan></text></g><rect class="djs-hit djs-hit-all" x="0" y="0" width="65" height="14" style="fill: none; stroke-opacity: 0; stroke: white; stroke-width: 15px;"/><rect x="-6" y="-6" rx="3" width="77" height="26" class="djs-outline" style="fill: none;"/></g></g><g class="djs-group"><g class="djs-element djs-connection" data-element-id="Flow_18pq0cj" style="display: block;"><g class="djs-visual"><path d="m  243,180L325,180 " style="fill: none; stroke-width: 2px; stroke: rgb(34, 36, 42); stroke-linejoin: round; marker-end: url('#sequenceflow-end-white-hsl_225_10_15_-338gdcuyuuj4g4bwmguq89y2o');"/></g><polyline points="243,180 325,180 " class="djs-hit djs-hit-stroke" style="fill: none; stroke-opacity: 0; stroke: white; stroke-width: 15px;"/><rect x="237" y="174" rx="3" width="94" height="12" class="djs-outline" style="fill: none;"/></g></g><g class="djs-group"><g class="djs-element djs-connection" data-element-id="Flow_1u337wo" style="display: block;"><g class="djs-visual"><path d="m  425,180L465,180 " style="fill: none; stroke-width: 2px; stroke: rgb(34, 36, 42); stroke-linejoin: round; marker-end: url('#sequenceflow-end-white-hsl_225_10_15_-338gdcuyuuj4g4bwmguq89y2o');"/></g><polyline points="425,180 465,180 " class="djs-hit djs-hit-stroke" style="fill: none; stroke-opacity: 0; stroke: white; stroke-width: 15px;"/><rect x="419" y="174" rx="3" width="52" height="12" class="djs-outline" style="fill: none;"/></g></g><g class="djs-group"><g class="djs-element djs-connection" data-element-id="Flow_1fzm6v3" style="display: block;"><g class="djs-visual"><path d="m  565,180L617,180 " style="fill: none; stroke-width: 2px; stroke: rgb(34, 36, 42); stroke-linejoin: round; marker-end: url('#sequenceflow-end-white-hsl_225_10_15_-338gdcuyuuj4g4bwmguq89y2o');"/></g><polyline points="565,180 617,180 " class="djs-hit djs-hit-stroke" style="fill: none; stroke-opacity: 0; stroke: white; stroke-width: 15px;"/><rect x="559" y="174" rx="3" width="64" height="12" class="djs-outline" style="fill: none;"/></g></g></g></g><g class="djs-group"><g class="djs-element djs-shape" data-element-id="Activity_010eobf" style="display: block;" transform="matrix(1 0 0 1 175 310)"><g class="djs-visual"><rect x="0" y="0" width="415" height="200" rx="10" ry="10" style="stroke: rgb(34, 36, 42); stroke-width: 2px; fill: white; fill-opacity: 0.95;"/><text lineHeight="1.2" class="djs-label" style="font-family: Arial, sans-serif; font-size: 12px; font-weight: normal; fill: rgb(34, 36, 42);"><tspan x="207.5" y="15.799999999999999"/></text></g><rect class="djs-hit djs-hit-no-move" x="0" y="0" width="415" height="200" style="fill: none; stroke-opacity: 0; stroke: white; stroke-width: 15px;"/><rect class="djs-hit djs-hit-click-stroke" x="0" y="0" width="415" height="200" style="fill: none; stroke-opacity: 0; stroke: white; stroke-width: 15px;"/><rect class="djs-hit djs-hit-all" x="0" y="0" width="415" height="30" style="fill: none; stroke-opacity: 0; stroke: white; stroke-width: 15px;"/><rect x="-6" y="-6" rx="3" width="427" height="212" class="djs-outline" style="fill: none;"/></g><g class="djs-children"><g class="djs-group"><g class="djs-element djs-shape" data-element-id="Event_0yj3jgi" style="display: block;" transform="matrix(1 0 0 1 212 392)"><g class="djs-visual"><circle cx="18" cy="18" r="18" style="stroke: rgb(34, 36, 42); stroke-width: 2px; fill: white; fill-opacity: 0.95;"/></g><rect class="djs-hit djs-hit-all" x="0" y="0" width="36" height="36" style="fill: none; stroke-opacity: 0; stroke: white; stroke-width: 15px;"/><rect x="-6" y="-6" rx="3" width="48" height="48" class="djs-outline" style="fill: none;"/></g></g><g class="djs-group"><g class="djs-element djs-shape" data-element-id="Event_0yj3jgi_label" style="display: block;" transform="matrix(1 0 0 1 196 435)"><g class="djs-visual"><text lineHeight="1.2" class="djs-label" style="font-family: Arial, sans-serif; font-size: 11px; font-weight: normal; fill: rgb(34, 36, 42);"><tspan x="0" y="9.899999999999999">User requests </tspan><tspan x="14.6025390625" y="23.099999999999998">Solution</tspan></text></g><rect class="djs-hit djs-hit-all" x="0" y="0" width="69" height="27" style="fill: none; stroke-opacity: 0; stroke: white; stroke-width: 15px;"/><rect x="-6" y="-6" rx="3" width="81" height="39" class="djs-outline" style="fill: none;"/></g></g><g class="djs-group"><g class="djs-element djs-shape" data-element-id="Activity_0tpteym" style="display: block;" transform="matrix(1 0 0 1 330 370)"><g class="djs-visual"><rect x="0" y="0" width="100" height="80" rx="10" ry="10" style="stroke: rgb(34, 36, 42); stroke-width: 2px; fill: white; fill-opacity: 0.95;"/><text lineHeight="1.2" class="djs-label" style="font-family: Arial, sans-serif; font-size: 12px; font-weight: normal; fill: rgb(34, 36, 42);"><tspan x="8.48046875" y="29.200000000000003">Provide 3-5 low </tspan><tspan x="11.4140625" y="43.6">effort standard </tspan><tspan x="26.3125" y="58">solutions</tspan></text><path d="m 5.984999999999999,4.997999999999999 l 0,14 l 21,0 l 0,-14 z l 10.5,6 l 10.5,-6" style="fill: rgb(34, 36, 42); stroke-width: 1px; stroke: white;"/></g><rect class="djs-hit djs-hit-all" x="0" y="0" width="100" height="80" style="fill: none; stroke-opacity: 0; stroke: white; stroke-width: 15px;"/><rect x="-6" y="-6" rx="3" width="112" height="92" class="djs-outline" style="fill: none;"/></g></g><g class="djs-group"><g class="djs-element djs-shape" data-element-id="Event_15adnoc" style="display: block;" transform="matrix(1 0 0 1 517 392)"><g class="djs-visual"><circle cx="18" cy="18" r="18" style="stroke: rgb(34, 36, 42); stroke-width: 4px; fill: white; fill-opacity: 0.95;"/></g><rect class="djs-hit djs-hit-all" x="0" y="0" width="36" height="36" style="fill: none; stroke-opacity: 0; stroke: white; stroke-width: 15px;"/><rect x="-6" y="-6" rx="3" width="48" height="48" class="djs-outline" style="fill: none;"/></g></g><g class="djs-group"><g class="djs-element djs-shape" data-element-id="Event_15adnoc_label" style="display: block;" transform="matrix(1 0 0 1 501 435)"><g class="djs-visual"><text lineHeight="1.2" class="djs-label" style="font-family: Arial, sans-serif; font-size: 11px; font-weight: normal; fill: rgb(34, 36, 42);"><tspan x="0" y="9.899999999999999">User receives </tspan><tspan x="11.9130859375" y="23.099999999999998">solutions</tspan></text></g><rect class="djs-hit djs-hit-all" x="0" y="0" width="68" height="27" style="fill: none; stroke-opacity: 0; stroke: white; stroke-width: 15px;"/><rect x="-6" y="-6" rx="3" width="80" height="39" class="djs-outline" style="fill: none;"/></g></g><g class="djs-group"><g class="djs-element djs-connection" data-element-id="Flow_1kvz02i" style="display: block;"><g class="djs-visual"><path d="m  248,410L330,410 " style="fill: none; stroke-width: 2px; stroke: rgb(34, 36, 42); stroke-linejoin: round; marker-end: url('#sequenceflow-end-white-hsl_225_10_15_-338gdcuyuuj4g4bwmguq89y2o');"/></g><polyline points="248,410 330,410 " class="djs-hit djs-hit-stroke" style="fill: none; stroke-opacity: 0; stroke: white; stroke-width: 15px;"/><rect x="242" y="404" rx="3" width="94" height="12" class="djs-outline" style="fill: none;"/></g></g><g class="djs-group"><g class="djs-element djs-connection" data-element-id="Flow_0yurexo" style="display: block;"><g class="djs-visual"><path d="m  430,410L517,410 " style="fill: none; stroke-width: 2px; stroke: rgb(34, 36, 42); stroke-linejoin: round; marker-end: url('#sequenceflow-end-white-hsl_225_10_15_-338gdcuyuuj4g4bwmguq89y2o');"/></g><polyline points="430,410 517,410 " class="djs-hit djs-hit-stroke" style="fill: none; stroke-opacity: 0; stroke: white; stroke-width: 15px;"/><rect x="424" y="404" rx="3" width="99" height="12" class="djs-outline" style="fill: none;"/></g></g></g></g><g class="djs-group"><g class="djs-element djs-connection" data-element-id="Flow_0y9q5vn" style="display: block;"><g class="djs-visual"><path d="m  238,600L290,600 " style="fill: none; stroke-width: 2px; stroke: rgb(34, 36, 42); stroke-linejoin: round; marker-end: url('#sequenceflow-end-white-hsl_225_10_15_-338gdcuyuuj4g4bwmguq89y2o');"/></g><polyline points="238,600 290,600 " class="djs-hit djs-hit-stroke" style="fill: none; stroke-opacity: 0; stroke: white; stroke-width: 15px;"/><rect x="232" y="594" rx="3" width="64" height="12" class="djs-outline" style="fill: none;"/></g></g><g class="djs-group"><g class="djs-element djs-connection" data-element-id="Flow_1jvvt4w" style="display: block;"><g class="djs-visual"><path d="m  478,600L530,600 " style="fill: none; stroke-width: 2px; stroke: rgb(34, 36, 42); stroke-linejoin: round; marker-end: url('#sequenceflow-end-white-hsl_225_10_15_-338gdcuyuuj4g4bwmguq89y2o');"/></g><polyline points="478,600 530,600 " class="djs-hit djs-hit-stroke" style="fill: none; stroke-opacity: 0; stroke: white; stroke-width: 15px;"/><rect x="472" y="594" rx="3" width="64" height="12" class="djs-outline" style="fill: none;"/></g></g><g class="djs-group"><g class="djs-element djs-connection" data-element-id="Flow_0k35vq5" style="display: block;"><g class="djs-visual"><path d="m  390,600L442,600 " style="fill: none; stroke-width: 2px; stroke: rgb(34, 36, 42); stroke-linejoin: round; marker-end: url('#sequenceflow-end-white-hsl_225_10_15_-338gdcuyuuj4g4bwmguq89y2o');"/></g><polyline points="390,600 442,600 " class="djs-hit djs-hit-stroke" style="fill: none; stroke-opacity: 0; stroke: white; stroke-width: 15px;"/><rect x="384" y="594" rx="3" width="64" height="12" class="djs-outline" style="fill: none;"/></g></g><g class="djs-group"><g class="djs-element djs-connection" data-element-id="Flow_1emm7id" style="display: block;"><g class="djs-visual"><path d="m  630,600L685,600 " style="fill: none; stroke-width: 2px; stroke: rgb(34, 36, 42); stroke-linejoin: round; marker-end: url('#sequenceflow-end-white-hsl_225_10_15_-338gdcuyuuj4g4bwmguq89y2o');"/></g><polyline points="630,600 685,600 " class="djs-hit djs-hit-stroke" style="fill: none; stroke-opacity: 0; stroke: white; stroke-width: 15px;"/><rect x="624" y="594" rx="3" width="67" height="12" class="djs-outline" style="fill: none;"/></g></g><g class="djs-group"><g class="djs-element djs-connection" data-element-id="Flow_0uhoycg" style="display: block;"><g class="djs-visual"><path d="m  735,600L790,600 " style="fill: none; stroke-width: 2px; stroke: rgb(34, 36, 42); stroke-linejoin: round; marker-end: url('#sequenceflow-end-white-hsl_225_10_15_-338gdcuyuuj4g4bwmguq89y2o');"/></g><polyline points="735,600 790,600 " class="djs-hit djs-hit-stroke" style="fill: none; stroke-opacity: 0; stroke: white; stroke-width: 15px;"/><rect x="729" y="594" rx="3" width="67" height="12" class="djs-outline" style="fill: none;"/></g></g><g class="djs-group"><g class="djs-element djs-connection" data-element-id="Flow_0v30ft2" style="display: block;"><g class="djs-visual"><path d="m  890,600L945,600 " style="fill: none; stroke-width: 2px; stroke: rgb(34, 36, 42); stroke-linejoin: round; marker-end: url('#sequenceflow-end-white-hsl_225_10_15_-338gdcuyuuj4g4bwmguq89y2o');"/></g><polyline points="890,600 945,600 " class="djs-hit djs-hit-stroke" style="fill: none; stroke-opacity: 0; stroke: white; stroke-width: 15px;"/><rect x="884" y="594" rx="3" width="67" height="12" class="djs-outline" style="fill: none;"/></g></g><g class="djs-group"><g class="djs-element djs-connection" data-element-id="Flow_12782qo" style="display: block;"><g class="djs-visual"><path d="m  995,600L1050,600 " style="fill: none; stroke-width: 2px; stroke: rgb(34, 36, 42); stroke-linejoin: round; marker-end: url('#sequenceflow-end-white-hsl_225_10_15_-338gdcuyuuj4g4bwmguq89y2o');"/></g><polyline points="995,600 1050,600 " class="djs-hit djs-hit-stroke" style="fill: none; stroke-opacity: 0; stroke: white; stroke-width: 15px;"/><rect x="989" y="594" rx="3" width="67" height="12" class="djs-outline" style="fill: none;"/></g></g><g class="djs-group"><g class="djs-element djs-shape" data-element-id="Flow_12782qo_label" style="display: block;" transform="matrix(1 0 0 1 1014 582)"><g class="djs-visual"><text lineHeight="1.2" class="djs-label" style="font-family: Arial, sans-serif; font-size: 11px; font-weight: normal; fill: rgb(34, 36, 42);"><tspan x="0" y="9.899999999999999">yes</tspan></text></g><rect class="djs-hit djs-hit-all" x="0" y="0" width="18" height="14" style="fill: none; stroke-opacity: 0; stroke: white; stroke-width: 15px;"/><rect x="-6" y="-6" rx="3" width="30" height="26" class="djs-outline" style="fill: none;"/></g></g><g class="djs-group"><g class="djs-element djs-connection" data-element-id="Flow_0z2vka9" style="display: block;"><g class="djs-visual"><path d="m  1150,600L1230,600 " style="fill: none; stroke-width: 2px; stroke: rgb(34, 36, 42); stroke-linejoin: round; marker-end: url('#sequenceflow-end-white-hsl_225_10_15_-338gdcuyuuj4g4bwmguq89y2o');"/></g><polyline points="1150,600 1230,600 " class="djs-hit djs-hit-stroke" style="fill: none; stroke-opacity: 0; stroke: white; stroke-width: 15px;"/><rect x="1144" y="594" rx="3" width="92" height="12" class="djs-outline" style="fill: none;"/></g></g><g class="djs-group"><g class="djs-element djs-connection" data-element-id="Flow_15370dn" style="display: block;"><g class="djs-visual"><path d="m  1330,600L1385,600 " style="fill: none; stroke-width: 2px; stroke: rgb(34, 36, 42); stroke-linejoin: round; marker-end: url('#sequenceflow-end-white-hsl_225_10_15_-338gdcuyuuj4g4bwmguq89y2o');"/></g><polyline points="1330,600 1385,600 " class="djs-hit djs-hit-stroke" style="fill: none; stroke-opacity: 0; stroke: white; stroke-width: 15px;"/><rect x="1324" y="594" rx="3" width="67" height="12" class="djs-outline" style="fill: none;"/></g></g><g class="djs-group"><g class="djs-element djs-connection" data-element-id="Flow_1wct88v" style="display: block;"><g class="djs-visual"><path d="m  1435,600L1510,600 " style="fill: none; stroke-width: 2px; stroke: rgb(34, 36, 42); stroke-linejoin: round; marker-end: url('#sequenceflow-end-white-hsl_225_10_15_-338gdcuyuuj4g4bwmguq89y2o');"/></g><polyline points="1435,600 1510,600 " class="djs-hit djs-hit-stroke" style="fill: none; stroke-opacity: 0; stroke: white; stroke-width: 15px;"/><rect x="1429" y="594" rx="3" width="87" height="12" class="djs-outline" style="fill: none;"/></g></g><g class="djs-group"><g class="djs-element djs-shape" data-element-id="Flow_1wct88v_label" style="display: block;" transform="matrix(1 0 0 1 1451 582)"><g class="djs-visual"><text lineHeight="1.2" class="djs-label" style="font-family: Arial, sans-serif; font-size: 11px; font-weight: normal; fill: rgb(34, 36, 42);"><tspan x="0" y="9.899999999999999">yes</tspan></text></g><rect class="djs-hit djs-hit-all" x="0" y="0" width="18" height="14" style="fill: none; stroke-opacity: 0; stroke: white; stroke-width: 15px;"/><rect x="-6" y="-6" rx="3" width="30" height="26" class="djs-outline" style="fill: none;"/></g></g><g class="djs-group"><g class="djs-element djs-connection" data-element-id="Flow_0azx8te" style="display: block;"><g class="djs-visual"><path d="m  1610,600L1662,600 " style="fill: none; stroke-width: 2px; stroke: rgb(34, 36, 42); stroke-linejoin: round; marker-end: url('#sequenceflow-end-white-hsl_225_10_15_-338gdcuyuuj4g4bwmguq89y2o');"/></g><polyline points="1610,600 1662,600 " class="djs-hit djs-hit-stroke" style="fill: none; stroke-opacity: 0; stroke: white; stroke-width: 15px;"/><rect x="1604" y="594" rx="3" width="64" height="12" class="djs-outline" style="fill: none;"/></g></g></svg>